<svg width="25" height="24" viewBox="0 0 25 24" fill="none" xmlns="http://www.w3.org/2000/svg">
<path d="M21.9632 10.3913H21.2058V10.3527H12.7353V14.1174H18.0551C17.2775 16.3085 15.193 17.8821 12.7353 17.8821C9.61577 17.8821 7.08819 15.3545 7.08819 12.235C7.08819 9.11552 9.61577 6.58795 12.7353 6.58795C14.1746 6.58795 15.4853 7.13023 16.4816 8.0181L19.1433 5.35633C17.4632 3.79015 15.215 2.82324 12.7353 2.82324C7.53672 2.82324 3.32349 7.03648 3.32349 12.235C3.32349 17.4335 7.53672 21.6468 12.7353 21.6468C17.9338 21.6468 22.147 17.4335 22.147 12.235C22.147 11.6045 22.0827 10.9887 21.9632 10.3913Z" fill="#FFC107"/>
<path d="M4.40808 7.85449L7.50183 10.1229C8.33823 8.05118 10.364 6.58795 12.7353 6.58795C14.1746 6.58795 15.4853 7.13023 16.4816 8.0181L19.1434 5.35633C17.4632 3.79015 15.2151 2.82324 12.7353 2.82324C9.11948 2.82324 5.98529 4.86368 4.40808 7.85449Z" fill="#FF3D00"/>
<path d="M12.7352 21.6472C15.1654 21.6472 17.3749 20.7171 19.0459 19.2042L16.1323 16.7391C15.1874 17.4542 14.0128 17.8825 12.7352 17.8825C10.2867 17.8825 8.20951 16.3219 7.42642 14.1436L4.35657 16.5075C5.91355 19.5553 9.07716 21.6472 12.7352 21.6472Z" fill="#4CAF50"/>
<path d="M21.9632 10.3911H21.2058V10.3525H12.7352V14.1172H18.0551C17.6819 15.1706 17.0036 16.0768 16.1305 16.7386C16.1323 16.7386 16.1323 16.7386 16.1323 16.7386L19.0459 19.2036C18.84 19.3893 22.147 16.9408 22.147 12.2349C22.147 11.6044 22.0827 10.9886 21.9632 10.3911Z" fill="#1976D2"/>
</svg>
